<?xml version="1.0" standalone="no"?>
<!DOCTYPE svg PUBLIC "-//W3C//DTD SVG 20010904//EN"
 "http://www.w3.org/TR/2001/REC-SVG-20010904/DTD/svg10.dtd">
<svg version="1.0" xmlns="http://www.w3.org/2000/svg"
 width="608.000000pt" height="608.000000pt" viewBox="0 0 608.000000 608.000000"
 preserveAspectRatio="xMidYMid meet">
<metadata>
Created by potrace 1.14, written by Peter Selinger 2001-2017
</metadata>
<g transform="translate(0.000000,608.000000) scale(0.100000,-0.100000)"
fill="#000000" stroke="none">
<path d="M3013 6058 c-11 -13 -67 -81 -124 -153 -56 -71 -105 -132 -108 -135
-14 -12 -109 -127 -124 -150 -20 -31 -18 -45 13 -102 23 -44 23 -46 7 -81 -25
-51 -21 -80 16 -129 41 -54 78 -69 107 -43 11 10 20 14 20 9 0 -5 4 -4 8 1 17
24 204 108 238 107 88 -3 199 -111 239 -232 15 -45 19 -62 30 -124 6 -29 26
-56 43 -56 5 0 34 -10 63 -22 148 -60 311 -215 325 -309 3 -24 7 -53 9 -65 2
-11 15 -54 30 -95 34 -94 39 -114 38 -169 0 -61 -5 -80 -30 -122 -28 -47 -32
-63 -34 -132 -2 -50 -7 -65 -33 -94 -27 -31 -31 -42 -30 -91 1 -31 12 -97 24
-148 12 -51 19 -102 15 -113 -4 -11 -24 -29 -45 -40 -64 -33 -63 -65 9 -160
23 -30 47 -71 53 -92 10 -33 7 -43 -26 -110 -48 -96 -49 -156 -5 -259 17 -41
36 -86 42 -101 6 -16 15 -28 19 -28 4 0 8 -5 8 -10 0 -6 26 -50 58 -98 68
-102 98 -162 106 -217 7 -45 36 -90 57 -89 27 1 84 16 96 26 21 17 107 13 140
-7 50 -29 71 -79 78 -178 4 -69 12 -102 40 -165 43 -97 54 -149 51 -222 -6
-103 -61 -184 -164 -243 -32 -17 -59 -32 -62 -33 -10 -2 -65 -24 -80 -32 -8
-5 -42 -71 -77 -148 -59 -134 -96 -245 -107 -329 -20 -151 -70 -198 -220 -210
-110 -9 -119 -11 -142 -41 -41 -50 -15 -96 78 -141 21 -10 38 -21 38 -25 0 -5
5 -8 11 -8 6 0 24 -9 40 -21 16 -11 29 -17 29 -13 0 3 6 1 14 -5 23 -19 194
-101 211 -101 8 0 15 -3 15 -8 0 -4 15 -12 33 -18 17 -6 82 -29 142 -51 103
-37 204 -70 243 -78 9 -2 49 -11 87 -20 205 -49 244 -42 345 64 84 87 115 123
167 191 24 30 49 62 56 70 46 51 212 327 256 425 7 17 17 37 22 45 11 18 13
22 54 130 35 90 90 272 100 329 3 19 8 37 10 41 8 12 43 243 52 331 13 149 8
449 -11 559 -2 14 -7 48 -10 75 -4 28 -10 67 -15 88 -5 20 -7 37 -5 37 3 0 0
8 -5 18 -5 9 -11 31 -14 47 -10 56 -58 209 -99 315 -79 203 -213 439 -352 623
-38 51 -72 94 -75 97 -4 3 -26 30 -51 60 -25 30 -47 57 -50 60 -3 3 -52 61
-109 130 -58 69 -117 139 -132 155 -15 17 -56 64 -91 105 -34 41 -72 86 -84
100 -108 126 -159 186 -164 190 -3 3 -29 34 -59 70 -30 36 -61 72 -70 80 -9 8
-34 38 -56 65 -22 27 -47 57 -55 65 -8 9 -37 43 -64 75 -27 33 -59 69 -70 81
-12 12 -34 38 -50 58 -16 21 -41 50 -55 65 -14 15 -42 47 -61 71 -19 24 -42
51 -51 59 -8 9 -37 43 -65 76 -27 33 -54 65 -60 70 -5 6 -35 39 -65 75 -29 36
-56 67 -59 70 -3 3 -30 34 -60 70 -30 36 -57 67 -60 70 -3 3 -27 32 -55 65
-27 33 -52 62 -55 65 -3 3 -41 47 -85 98 -101 120 -116 129 -152 90z"/>
<path d="M1978 4848 c-24 -24 -81 -90 -128 -148 -98 -122 -111 -137 -165 -194
-48 -51 -124 -140 -156 -181 -13 -17 -26 -32 -29 -35 -4 -3 -60 -73 -127 -156
-66 -82 -127 -157 -134 -165 -8 -8 -27 -30 -43 -49 -15 -19 -47 -55 -70 -80
-170 -181 -357 -469 -444 -685 -29 -72 -83 -217 -88 -235 -2 -8 -12 -49 -23
-90 -63 -234 -86 -412 -86 -675 0 -219 8 -314 41 -485 9 -41 17 -86 20 -100
26 -134 119 -375 116 -300 -1 32 -15 225 -19 255 -12 108 -5 430 13 517 2 13
7 43 10 68 3 25 8 54 11 65 2 11 6 31 9 45 3 14 12 50 21 80 9 30 18 60 19 66
23 124 221 528 302 612 6 8 17 23 24 35 9 19 123 172 138 187 3 3 23 28 45 55
103 130 273 316 497 542 172 174 189 180 295 114 47 -29 66 -63 57 -101 -11
-39 -13 -166 -5 -197 18 -64 -14 -93 -107 -98 -63 -3 -70 -37 -23 -112 51 -82
50 -89 -22 -158 -35 -33 -68 -73 -75 -88 -32 -74 3 -163 80 -201 12 -6 29 -23
37 -37 13 -23 10 -33 -28 -128 -22 -57 -43 -124 -45 -149 -5 -50 25 -216 45
-253 27 -49 22 -63 -28 -91 -40 -21 -49 -31 -53 -59 -3 -19 -12 -47 -21 -64
-19 -35 -25 -57 -44 -170 -14 -76 -44 -149 -69 -167 -20 -13 -13 -42 34 -141
69 -144 67 -192 -9 -242 -21 -15 -41 -35 -44 -45 -7 -27 28 -121 76 -202 48
-81 184 -225 237 -250 52 -24 120 -54 161 -71 19 -8 53 -34 75 -57 76 -84 103
-108 157 -138 79 -45 109 -88 114 -165 5 -68 9 -75 41 -82 51 -9 89 -53 77
-87 -4 -13 -7 -24 -22 -108 -18 -99 -1 -125 114 -183 107 -54 140 -60 348 -63
175 -2 191 -1 217 17 20 15 28 29 28 50 0 35 -27 49 -78 42 -47 -7 -110 11
-228 67 -99 47 -109 56 -104 89 1 8 -4 33 -10 57 -10 33 -9 50 1 81 29 88 18
120 -58 163 -41 23 -42 25 -37 62 5 25 2 45 -9 60 -15 24 -166 178 -174 178
-2 0 -14 9 -26 21 -39 37 -130 95 -212 136 -111 55 -152 82 -215 146 -95 94
-120 131 -169 246 -37 87 -38 106 -8 123 47 26 85 10 161 -68 55 -57 69 -59
60 -8 -3 16 -7 38 -9 49 -5 38 -18 60 -66 111 -26 28 -57 73 -69 100 -12 27
-33 74 -47 104 -36 79 -39 110 -14 139 23 26 37 69 47 146 3 28 8 59 11 70 2
11 6 30 9 43 12 58 40 105 90 151 42 39 54 57 54 80 0 16 -4 33 -10 36 -17 10
-50 140 -50 195 0 49 21 153 39 188 31 63 51 116 51 136 0 18 -17 38 -59 73
-65 53 -91 89 -91 126 0 29 39 90 90 137 76 72 82 101 35 173 -31 45 -38 74
-23 84 7 3 35 6 64 5 29 0 60 5 70 13 18 12 18 15 0 71 -24 74 -22 117 7 204
13 39 21 73 18 77 -9 13 -133 93 -145 94 -6 1 -31 2 -56 3 -68 4 -86 13 -105
56 -17 37 -17 77 -1 170 39 222 28 276 -68 330 -45 26 -53 34 -48 53 4 19 37
73 52 87 30 28 55 120 31 120 -5 0 -29 -19 -53 -42z"/>
</g>
</svg>
